<svg width="28" height="28" viewBox="0 0 28 28" fill="none" xmlns="http://www.w3.org/2000/svg">
<path d="M1.75 10.5C1.75 12.8206 2.67187 15.0462 4.31282 16.6872C5.95376 18.3281 8.17936 19.25 10.5 19.25C12.8206 19.25 15.0462 18.3281 16.6872 16.6872C18.3281 15.0462 19.25 12.8206 19.25 10.5C19.25 8.17936 18.3281 5.95376 16.6872 4.31282C15.0462 2.67187 12.8206 1.75 10.5 1.75C8.17936 1.75 5.95376 2.67187 4.31282 4.31282C2.67187 5.95376 1.75 8.17936 1.75 10.5Z" fill="white"/>
<path d="M11.8415 9.33334V10.325H9.62487V11.1417H11.8415V12.1333H9.62487C9.62487 12.4833 9.6832 12.8333 9.79987 13.0667C9.91654 13.3 10.0332 13.5333 10.2082 13.65C10.3832 13.825 10.6165 13.8833 10.8499 14C11.0832 14.0583 11.3749 14.1167 11.6665 14.1167C11.8999 14.1167 12.0749 14.1167 12.3082 14.0583C12.5415 14 12.7165 14 12.8915 13.8833L13.1249 15.4583C12.8915 15.5167 12.5999 15.575 12.3082 15.575C12.0165 15.6333 11.7249 15.6333 11.4332 15.6333C10.9082 15.6333 10.3832 15.575 9.91654 15.4C9.44987 15.2833 9.04154 15.05 8.74987 14.7583C8.39987 14.4667 8.16654 14.1167 7.9332 13.65C7.7582 13.2417 7.64154 12.7167 7.64154 12.1333H6.5332V11.1417H7.64154V10.325H6.5332V9.33334H7.64154C7.69987 8.75001 7.81654 8.28334 7.99154 7.81668C8.22487 7.40834 8.4582 7.00001 8.8082 6.70834C9.1582 6.41668 9.56654 6.18334 10.0332 6.06668C10.4999 5.89168 11.0249 5.83334 11.5499 5.83334C11.7832 5.83334 12.0749 5.83334 12.3082 5.89168C12.5415 5.95001 12.8332 5.95001 13.0665 6.06668L12.8332 7.64168C12.6582 7.58334 12.4832 7.52501 12.2499 7.46668C12.0165 7.40834 11.8415 7.40834 11.6082 7.40834C11.3165 7.40834 11.0249 7.46668 10.7915 7.52501C10.5582 7.58334 10.3249 7.70001 10.2082 7.87501C10.0332 8.05001 9.91654 8.22501 9.79987 8.45834C9.6832 8.69168 9.62487 8.98334 9.62487 9.33334H11.8415Z" fill="#0072BC"/>
<path d="M8.75 17.5C8.75 19.8206 9.67187 22.0462 11.3128 23.6872C12.9538 25.3281 15.1794 26.25 17.5 26.25C19.8206 26.25 22.0462 25.3281 23.6872 23.6872C25.3281 22.0462 26.25 19.8206 26.25 17.5C26.25 15.1794 25.3281 12.9538 23.6872 11.3128C22.0462 9.67187 19.8206 8.75 17.5 8.75C15.1794 8.75 12.9538 9.67187 11.3128 11.3128C9.67187 12.9538 8.75 15.1794 8.75 17.5Z" fill="white"/>
<path d="M16.567 15.75C16.6253 15.8667 16.6837 15.9833 16.8003 16.1C16.917 16.2167 17.0337 16.3333 17.2087 16.3917C17.3837 16.5083 17.617 16.5667 17.8503 16.6833C18.2587 16.8583 18.667 17.0333 19.017 17.2083C19.367 17.3833 19.6587 17.6167 19.892 17.85C20.1253 18.0833 20.3587 18.375 20.4753 18.6667C20.592 18.9583 20.7087 19.3667 20.7087 19.775C20.7087 20.1833 20.6503 20.5333 20.5337 20.825C20.417 21.1167 20.242 21.4083 20.0087 21.6417C19.7753 21.875 19.4837 22.05 19.192 22.1667C18.842 22.2833 18.492 22.4 18.142 22.4583V23.7417H17.092V22.4583C16.742 22.4 16.392 22.3417 16.042 22.225C15.692 22.1083 15.4003 21.9333 15.167 21.6417C14.8753 21.4083 14.7003 21.0583 14.5253 20.7083C14.3503 20.3583 14.292 19.8917 14.292 19.3667H16.217C16.217 19.6583 16.2753 19.95 16.3337 20.125C16.392 20.3583 16.5087 20.475 16.6837 20.65C16.8003 20.7667 16.9753 20.8833 17.1503 20.9417C17.3253 21 17.5003 21 17.6753 21C17.9087 21 18.0837 21 18.2003 20.9417C18.3753 20.8833 18.492 20.825 18.6087 20.7083C18.7253 20.5917 18.7837 20.475 18.842 20.3583C18.9003 20.2417 18.9003 20.0667 18.9003 19.8917C18.9003 19.7167 18.9003 19.5417 18.842 19.425C18.7837 19.3083 18.7253 19.1333 18.6087 19.0167C18.492 18.9 18.3753 18.7833 18.2003 18.725C18.0253 18.6083 17.792 18.55 17.5587 18.4333C17.1503 18.2583 16.742 18.0833 16.392 17.9083C16.042 17.7333 15.7503 17.5 15.517 17.2667C15.2837 17.0333 15.0503 16.7417 14.9337 16.45C14.817 16.1583 14.7003 15.75 14.7003 15.3417C14.7003 14.9917 14.7587 14.6417 14.8753 14.35C14.992 14.0583 15.167 13.7667 15.4003 13.5333C15.6337 13.3 15.9253 13.125 16.217 12.95C16.5087 12.8333 16.917 12.7167 17.267 12.6583V11.2583H18.317V12.6583C18.667 12.7167 19.017 12.8333 19.367 13.0083C19.6587 13.1833 19.9503 13.3583 20.1253 13.65C20.3587 13.8833 20.5337 14.2333 20.6503 14.5833C20.767 14.9333 20.8253 15.3417 20.8253 15.75H18.9003C18.9003 15.225 18.7837 14.8167 18.5503 14.5833C18.317 14.35 18.0253 14.175 17.6753 14.175C17.5003 14.175 17.3253 14.2333 17.1503 14.2917C17.0337 14.35 16.917 14.4083 16.8003 14.525C16.6837 14.6417 16.6253 14.7583 16.6253 14.875C16.567 14.9917 16.567 15.1667 16.567 15.3417C16.5087 15.4583 16.567 15.6333 16.567 15.75Z" fill="#0072BC"/>
</svg>
